<svg id="svg" xmlns="http://www.w3.org/2000/svg" xmlns:xlink="http://www.w3.org/1999/xlink" width="400" height="400" viewBox="0, 0, 400,400"><g id="svgg"><path id="path0" d="M192.578 30.273 C 180.962 30.596,182.031 29.197,182.031 44.067 L 182.031 56.854 178.320 57.391 C 173.044 58.155,157.678 62.087,150.840 64.424 C 147.649 65.514,144.789 66.406,144.484 66.406 C 144.179 66.406,141.590 62.210,138.731 57.081 C 130.933 43.089,132.329 43.848,123.047 48.549 C 114.141 53.060,99.760 62.231,100.238 63.095 C 100.414 63.412,103.251 68.314,106.542 73.989 L 112.527 84.306 98.555 98.277 L 84.584 112.248 74.519 106.447 C 68.983 103.256,64.028 100.468,63.509 100.252 C 62.255 99.728,54.077 112.232,48.780 122.770 L 44.600 131.086 54.282 136.710 C 59.607 139.803,64.552 142.764,65.271 143.289 C 66.473 144.168,66.358 144.927,63.837 152.786 C 61.235 160.894,59.837 166.309,57.594 176.953 L 56.606 181.641 44.004 181.855 C 28.891 182.112,30.424 180.067,30.414 199.980 C 30.404 219.996,28.856 217.969,44.154 217.969 L 56.890 217.969 57.809 223.633 C 59.090 231.531,60.563 237.310,63.816 247.198 C 66.448 255.199,66.536 255.785,65.253 256.723 C 64.501 257.273,59.531 260.233,54.209 263.301 C 48.886 266.369,44.531 269.031,44.531 269.216 C 44.531 271.222,61.764 300.000,62.965 300.000 C 63.195 300.000,67.491 297.588,72.512 294.640 C 77.533 291.693,82.388 288.891,83.302 288.415 C 84.809 287.629,85.570 288.243,91.477 295.003 C 97.342 301.715,106.436 310.353,111.015 313.560 L 112.738 314.767 106.564 325.492 C 103.169 331.391,100.282 336.481,100.149 336.803 C 99.846 337.537,108.400 343.277,120.982 350.781 L 130.635 356.538 132.071 354.636 C 132.861 353.590,135.512 348.952,137.962 344.328 C 144.387 332.206,142.784 333.087,152.576 336.294 C 160.545 338.905,170.318 341.385,178.125 342.779 L 181.641 343.407 181.855 356.002 C 182.112 371.119,180.084 369.597,199.987 369.604 C 219.906 369.611,217.888 371.115,218.145 356.069 L 218.359 343.540 227.588 341.680 C 232.663 340.657,241.007 338.419,246.129 336.707 C 251.251 334.995,255.590 333.594,255.772 333.594 C 255.953 333.594,257.063 335.264,258.237 337.305 C 259.412 339.346,262.268 344.265,264.584 348.237 L 268.795 355.459 277.171 351.249 C 284.391 347.621,300.000 338.055,300.000 337.259 C 300.000 337.111,297.184 332.095,293.743 326.112 L 287.486 315.234 291.985 311.372 C 297.691 306.473,306.383 297.790,311.372 292.006 L 315.234 287.527 325.391 293.463 C 330.977 296.728,335.972 299.567,336.491 299.771 C 337.749 300.266,345.959 287.696,351.234 277.202 L 355.429 268.856 345.771 263.290 C 340.460 260.228,335.537 257.301,334.831 256.785 C 333.663 255.931,333.832 254.980,336.718 246.191 C 338.462 240.881,340.693 232.446,341.676 227.448 L 343.463 218.359 355.911 218.359 C 370.904 218.359,369.406 220.358,369.476 200.259 C 369.547 179.943,371.075 182.031,356.142 182.031 C 346.869 182.031,343.625 181.783,343.404 181.055 C 343.240 180.518,342.174 175.684,341.034 170.313 C 339.894 164.941,337.731 156.911,336.228 152.466 C 333.074 143.147,332.582 144.301,341.797 139.400 C 354.462 132.664,355.219 131.080,350.437 121.321 C 344.412 109.026,337.810 99.779,335.817 100.846 C 334.894 101.340,329.981 104.164,324.899 107.122 C 314.068 113.426,314.967 113.245,312.500 109.616 C 311.426 108.036,305.713 101.952,299.805 96.095 C 287.187 83.587,287.531 85.099,294.531 72.940 C 297.539 67.715,300.000 63.221,300.000 62.953 C 300.000 61.954,284.398 52.288,277.056 48.738 C 268.040 44.379,269.291 43.730,262.089 56.499 C 255.797 67.654,257.040 67.135,245.662 63.354 C 240.528 61.648,232.197 59.455,227.148 58.481 L 217.969 56.709 217.969 43.995 C 217.969 31.439,217.947 31.275,216.211 30.909 C 213.733 30.387,200.911 30.042,192.578 30.273 M215.368 104.293 C 293.382 116.946,324.213 212.388,268.385 268.413 C 212.767 324.227,116.924 293.245,104.293 215.368 C 93.784 150.570,150.570 93.784,215.368 104.293 M233.712 138.175 C 231.007 141.027,226.213 145.996,223.058 149.219 L 217.324 155.078 217.931 158.905 L 218.538 162.732 210.514 174.714 L 202.490 186.696 207.190 190.230 L 211.891 193.763 214.763 189.655 C 216.343 187.396,220.025 181.954,222.945 177.562 C 227.765 170.315,228.520 169.534,231.120 169.103 C 232.695 168.842,234.368 168.512,234.837 168.371 C 235.642 168.127,248.797 139.880,248.287 139.489 C 248.155 139.387,245.928 137.884,243.339 136.148 L 238.631 132.992 233.712 138.175 M137.500 137.594 C 134.125 138.606,129.322 142.150,130.207 142.976 C 130.566 143.310,133.968 144.907,137.767 146.524 C 146.451 150.222,147.957 152.411,145.765 158.150 C 143.122 165.070,138.176 166.432,130.293 162.410 C 120.533 157.431,119.448 162.458,128.360 171.369 C 135.860 178.870,138.536 179.796,148.996 178.510 C 155.490 177.711,156.565 178.229,171.296 189.239 C 178.067 194.300,186.856 200.617,190.827 203.276 C 204.305 212.304,234.167 234.293,236.152 236.652 C 238.197 239.082,239.780 242.914,241.482 249.555 C 244.046 259.556,256.242 263.288,267.917 257.646 C 271.782 255.778,271.896 255.894,263.958 253.596 C 255.898 251.262,253.332 246.347,256.215 238.764 C 258.127 233.735,260.691 233.546,271.651 237.626 C 278.102 240.027,279.221 239.117,276.186 233.939 C 270.095 223.545,265.176 220.784,254.107 221.546 C 244.511 222.207,249.720 225.283,206.722 193.574 C 162.247 160.776,162.920 161.414,161.381 150.643 C 160.045 141.294,147.685 134.540,137.500 137.594 M188.396 207.580 C 187.763 208.711,187.461 208.753,186.385 207.860 C 185.688 207.282,185.011 206.947,184.879 207.115 C 184.747 207.284,183.293 209.883,181.646 212.891 C 177.266 220.892,173.492 226.354,163.290 239.453 C 149.905 256.638,148.681 262.624,157.779 266.392 C 164.471 269.164,167.378 266.585,178.523 247.986 C 183.750 239.262,190.371 229.431,193.874 225.192 C 199.362 218.552,199.911 217.602,198.900 216.486 C 198.110 215.612,197.991 214.832,198.509 213.907 C 199.118 212.819,198.412 212.011,194.590 209.415 C 189.236 205.779,189.380 205.822,188.396 207.580 " stroke="none" fill="#2475a9" fill-rule="evenodd"></path></g></svg>